# xmcd CD database file
#
# Track frame offsets:
#	150
#	18553
#	33660
#	47394
#	64473
#	84377
#	103554
#	120330
#	136023
#	151876
#	170530
#	184941
#	201351
#
# Disc length: 2966 seconds
#
# Revision: 0
# Processed by: cddbd v1.5.2PL0 Copyright (c) Steve Scherf et al.
# Submitted via: CDex 1.51
#
DISCID=a80b940d
DTITLE=Robert Hürten und Band - ...nicht nur Desaster
DYEAR=2008
DGENRE=Jazz
TTITLE0=Von wegen Regen
TTITLE1=Die gottlose Liste
TTITLE2=Fisch!
TTITLE3=Juli da oben leuchtet dein Stern
TTITLE4=Amtsmissbrauch am Morgen
TTITLE5=Draussen schwarz der Dom
TTITLE6=Was will ich mehr?
TTITLE7=Der kurze Traum vom Glück
TTITLE8=Ob Anne will?
TTITLE9=Manchmal ist's kalt
TTITLE10=Wenn ich nicht mehr bin
TTITLE11=Der Desasterblues
TTITLE12=Keine Zugabe mehr
EXTD=YEAR: 2008
EXTT0=
EXTT1=
EXTT2=
EXTT3=
EXTT4=
EXTT5=
EXTT6=
EXTT7=
EXTT8=
EXTT9=
EXTT10=
EXTT11=
EXTT12=
PLAYORDER=
